<svg xmlns="http://www.w3.org/2000/svg" viewBox="0 0 600 600" height="600" width="600"><style type="text/css">.st0{fill:#FFFFFF;}</style><path class="st0" d="M559.9 173.6c-1.7 3.8-6.4 6.8-6.4 6.8C563.8 180.5 559.9 173.6 559.9 173.6"/><path class="st0" d="M589.8 183c-1.3-14.1-8.9-15.3-16.6-18.3 -7.2-3-20.9-6.8-26-9.8 -5.1-3-10.2-3.8-16.2-4.7 -6-0.9-20.9 0-27.7-1.3 -6.8-1.3-17.5-3-19.6-1.7 -2.1 1.7-2.1 9.8-19.2 14.9 -10.2 3.4-23.4 6.4-33.2 9.4 0-5.1 0.4-20 13.2-41.3 15.8-26.4 20.4-35.4 13.2-42.6 -7.7-7.7-39.2 8.9-39.2 8.9s0.9-3 1.3-7.7c8.9-5.5 43.9-24.7 58.4-17 16.6 9.4-3.8 34.9-5.5 37.1 -1.7 2.6-24.3 35.8-29 49.4l9.4-2.6c0 0 20.9-33.7 28.1-42.2 7.2-8.9 23.9-34.5 10.6-45.6 -13.2-11.1-34.9-6.8-71.6 17 0.4-12.4-2.1-30.2-18.7-36.6 -28.5-10.6-122.3-3.4-228.3 81.4 0 0-41.3 29-80.9 70.3 -37.5 39.2-72.8 79.7-61.3 85.6 12.4 6.4 44.3-29 47.7-32.8 0 0 33.7 2.1 75.4-33.7 0 0 23 14.5 55 6 0 0-12.8 31.1 24.7 28.5 0 0-3 15.3 9.4 12.8 0 0-73.7 43-72.4 44.7 1.3 1.7 37.9-14.5 55.4-23.4 10.6-5.5 17-10.6 25.6-11.9 8.5-1.3 39.2-3 81.8-26.4s56.7-53.7 58.4-75.4c0 0-11.1 9.8-13.6 9.4 -2.6-0.4 1.7-11.5 3-18.7 1.3-7.2 9.8-35.4 1.7-31.9 -8.1 3.4-33.2 28.5-42.6 12.4 -6.8-11.9 11.9-34.1 11.9-34.1s-57.9 31.9-68.6 15.8c-9.4-14.5 6.4-26 6.4-26s-63.9 25.1-129.1 69.4C95.6 214.5 56 268.6 43.2 270.8s102.7-135.5 227-185.3c67.3-26.8 112.5-30.2 130.4-21.7 10.6 5.1 9.4 18.3 9.4 21.7 0 0-9.4 89 6.4 111.2 0 0 13.2-7.7 24.7-12.4l-2.6-4.7c1.3-2.6 5.5-4.3 11.9-6 8.5-2.6 22.6-3.8 30.2-9.4 7.7-5.5 6.8-7.7 10.6-8.9 0 0 15.8 2.6 23.9 1.7 8.1-0.9 15.8-1.7 20.4 0 4.7 1.7 21.3 10.2 31.5 12.4 9.8 1.7 11.1 2.6 14.5 8.5 3.8 6.8 3.8 14.1 3.8 14.1s-0.4 0-0.4-0.4c-6-3.4-20.9-3-20.9-3 3.8 0.4 7.7 2.1 2.1 3.4 -5.5 1.3-22.2 6.4-22.2 6.4 4.3-6 14.1-9.8 14.5-9.8s-19.6 0.4-19.6 0.4c4.7-3 6.8-10.6 7.7-14.1 1.7-0.4 3.4-0.9 5.1-1.3 5.5-1.7-0.4-3.4-12.4-3.8 -11.5-0.4-20.9-2.1-20.9-2.1l-3 5.1c1.3-0.4 6-2.1 10.6-1.7 0 2.1 1.3 7.2 7.2 8.1 2.6 0.4 4.3 0 6-0.9 -1.7 3.8-6.4 10.6-15.8 8.5 -6.4-1.3-9.8-7.7-9.8-7.7s-6.8 14.5-13.6 17.9c-6.8 3.4-40.9 19.2-55 36.6 -14.1 17.5-19.6 23.4-30.7 26.4 -11.1 3-11.9 3.4-13.6 4.7 -1.3 1.7-13.2 20-49.8 39.6 -11.9 6.4-16.6 6-18.7 4.3 -3.4-3.4 0.9-8.5-1.3-8.5 -3.8 0.4-6.8 1.7-15.3 5.5 -11.9 5.1-19.6 9.4-29 10.2 -8.5 0.9-16.6-1.7-17.5-14.5 0 0-0.4-0.4-6.4 1.7 -6 2.1-40.9 18.3-53.2 18.3 -6.8 0 5.5-15.8 5.5-15.8s-32.8 19.6-40 23c-7.2 3.4-27.3 11.9-19.2-8.9 0 0-46.9 29.4-118 51.1 -23 7.2-28.1 3.8-28.1 9.8 0 2.6 2.6 3.4 6 3.8 5.1 0.4 13.6 0.4 21.7-0.9 15.3-2.1 43.9-8.1 64.7-14.9 32.8-10.2 42.2-21.7 64.7-15.3 28.5 8.1 43-3.8 43-3.8s4.3 7.7 22.2 7.7c0 0 16.2 12.4 45.6 7.7 0 0 11.5 6 29 6 1.3 6.4 2.6 17.5 2.1 25.6 -1.3 14.5 0 18.3 8.1 11.5 0 0 8.5 24.7 8.9 31.1 0.4 6 0.4 10.2 3.8 10.6 3.4 0.4 5.5 0 5.5 0s2.1 5.5 10.2 7.7c0 0 0.9 2.6-11.9 7.2 -6 2.6-11.9 8.1-9.8 11.1 0 0 5.1 0 10.6-0.4 0 0 7.2-6.8 16.2-2.1 4.3 2.1 4.7 5.5 4.3 8.1 -0.4 0.9-0.9 2.1-1.3 3.4 -0.4 0.4-1.3 1.7-2.1 3.8 -1.7 2.6-3.4 6-2.6 7.2 1.3 2.1 5.5 8.1-6.4 9.4 0 0 0.4 2.6 4.3 2.1 3.8 0 12.8-6 13.2-8.9 0 0 4.3-5.1 7.2-11.9 3-6.8 3-8.1 3.8-6.8 0.9 1.3 4.3 8.9 1.7 14.9 -2.1 4.7-3.4 5.5-2.1 7.7 0 0.4 1.3 0.9 2.6 2.1 0.9 0.9 1.3 2.6-1.7 5.5 -5.1 5.1 8.5-0.9 10.6-5.5 0 0 4.3-5.1 2.6-23.9 0 0-0.4-2.1 2.1-0.4 2.6 1.7 6.4 5.5 6.4 8.9s-1.7 6.8 0.9 7.7c2.6 1.3 2.6 4.7 1.7 7.2 -0.9 2.1-6.4 3-5.1 3.4 1.3 0.4 11.1 0.4 12.8-10.6 1.7-11.5-3-24.3-16.2-31.9 -13.2-8.1-17.5-11.9-19.2-59.6 -0.9-16.6 4.3-36.2 7.7-49.4l0 0c4.3-15.8 9.8-24.7 9.8-23 0.4 3-3.8 15.3-4.3 21.3 0 0 38.3-20 49.8-29.8 11.5-9.8 17-17 17.5-17.9 0.4-0.4 9.8-9.8 13.6-34.9l14.5-28.5c0 0 6 9.8 10.6 3.8 4.7-6 14.9-22.6 16.6-22.6 0 0 2.6 7.7 6 5.5 3.4-2.1 4.7-10.2 14.1-14.5 8.9-4.3 24.7-8.9 24.7-8.9s35.4-8.9 36.6-6c1.3 2.6 1.3 8.9 1.3 8.9S591 197.5 589.8 183M371.2 455.2c0 0 1.7 3.8 6 6.4 3 1.7 10.6 5.5 14.1 9.4 1.3 1.3 2.6 3.4 2.1 3.8 -0.9 0.4-2.6 0-6.4-3.8 -3.8-3.4-6-1.7-6.4 0.9 -0.4 1.7 0.9 8.5 0 12.8 -0.9 4.3-3 5.1-2.6 0 0-4.7-2.6-15.8-7.2-15.3 -3.4 0.4-5.5 3.8-6.4 6 -1.3 2.1-3 4.7-2.1 2.6 0 0 0.4-4.7-2.1-10.2 -2.6-5.5-3.4-6-6.4-6.4 -3-0.4-3-3 1.7-5.1C360.6 453.9 362.7 452.7 371.2 455.2"/><path class="st0" d="M165.9 360.2c-9.8-3.8-23.4 0-37.5 6 -13.6 6.4-80.1 28.5-118 26 0 0 5.5 8.5 29 12.4 0 0-2.1 12.8 20.9 8.1 23-5.1 104.8-41.7 122.3-51.5C182.1 361.5 175.7 364 165.9 360.2"/><path class="st0" d="M225.1 363.2c-0.4 0-12.4 0.9-20.4-6.4L123.3 399c0 0-37.1 17-30.2 21.7 0 0 11.5 6.4 37.5-3.4 26-10.2 99.3-50.7 99.3-50.7L225.1 363.2"/><path class="st0" d="M259.6 370.9c0 0-10.6 0.9-18.7-3.4 0 0-43.9 28.1-52 32.4 -8.5 4.7-21.3 9.8-6.8 11.9 14.5 2.1 29.8 0.9 54.5-20.4C258.3 372.6 259.6 370.9 259.6 370.9"/><path class="st0" d="M398.9 350c-8.5 4.7-19.6 9.4-19.6 9.4s-3.8 15.3-3 43.5c1.3 36.6 5.1 46.9 17 53.7 17 9.8 20 24.7 20 29.4 0 4.7-0.4 6 0.9 7.7 1.7 1.7 1.3 2.6-0.4 6 -1.7 3-6.8 3.8-4.7 4.3 2.1 0.4 8.1 0.4 10.6-6 2.6-6.4 6-9.8 0.4-23.9 0 0 6.4-0.9 8.9 10.6 1.7 7.7-0.9 10.2 5.1 12.8 0 0 0.9 2.6-2.6 6.4 -2.6 3 1.3 2.1 3.4 1.3 3.8-2.1 7.7-7.7 6.8-14.1 -0.4-6-4.3-14.1-6.8-17.9 0 0 4.7 0.9 6.8 5.5 2.6 4.3 2.1 6.8 8.1 6.4 0 0 2.6 2.1 3 6.4 0 4.3-5.1 7.2-3.4 6.8 1.7-0.4 13.2-4.7 4.7-19.2 0 0-1.3-6.8-8.1-10.2 -6.8-3.4-14.9-13.2-30.2-15.8 0 0-7.2-7.2-8.5-11.9 0 0 0.9-1.7 1.3-3.4 0.4-1.7-9.8-54.1 14.9-101.4C424.5 335.5 407.4 345.3 398.9 350M414.7 456.1c8.5-0.4 27.7 12.8 27.7 14.5 -0.4 1.7-7.2-1.7-9.4-2.6 -2.1-0.9-5.1-1.3-2.6 2.1 2.1 3 5.1 10.6 5.1 12.4 0 1.7-1.7 0.4-1.7 0.4 -2.6-7.2-9.4-13.6-12.8-14.9 -3.4-1.3-4.7-0.4-5.1 2.1 -0.4 2.6 0.9 7.7-1.7 0.4 -3-7.2-9.8-12.8-11.5-14.1 -2.1-1.3-1.3-2.6-1.3-2.6 0.9-0.9 2.6-1.3 4.3-0.9C410.4 452.2 414.7 456.1 414.7 456.1"/><path class="st0" d="M239.2 491.4l18.3 7.7c-1.7 10.6 8.5 17.5 8.5 17.5 -1.3 3.8-4.7 6.8-6.4 8.5 -1.3 0.9-2.1 0.9-1.7 1.3 0 0 0.9 0 1.7-0.4 17.5-6.8 19.2-23 18.7-34.5 -0.9-10.6-8.1-16.6-8.1-16.6 -0.4 0 29.8 4.3 40.5 2.1 10.6-2.1 0-2.6 0-2.6 -22.6 0.4-47.3-8.9-60.1-4.7 -17 5.5-17.9 22.2-18.3 25.1 -2.1 15.8 6.8 24.3 10.6 27.3 0.9 0.4 1.7 1.3 1.7 1.3s-0.9-1.3-0.9-1.7C234.1 503.8 239.2 491.4 239.2 491.4"/><path class="st0" d="M548 514.4c-17.5 1.3-36.6-2.6-36.6-2.6l-2.6 1.7c13.6 6 28.5 4.7 31.9 5.5 3.4 0.4-0.9 2.1-0.9 2.1 -18.7 15.3-49.8 10.6-95.4 10.6s-93.3 12.8-109.1 15.3c-6.4 1.3-11.5-4.3-16.2-6.8 -6-3-10.6-4.7-10.6-4.7 53.7-11.5 83.9-14.5 141.4-18.7 34.5-2.1 63.9 2.6 67.3-23.9 1.3-8.1-0.9-14.5-3.8-19.6 -5.5-9.4-14.5-14.1-18.3-15.8 -1.3-0.4-3.4-0.4-4.3 0 -18.3 6-36.6 7.7-40 8.1 -3.4 0.4-1.7 1.7-1.7 1.7 19.2 1.3 34.9-3.4 40-5.1 1.3-0.4 2.6-0.4 3.4 0 3.8 1.3 12.4 5.1 16.6 17 7.7 20.4-8.5 25.1-22.2 26 -13.6 0.9-71.6 6.8-93.3 8.1 -21.7 1.3-79.7 8.9-100.5 12.4 -16.2 2.6-36.6 3.8-36.6 3.8 -5.5 0 3.4 2.6 25.6 6 21.7 3.4 27.7 11.9 36.6 17.5 3.8 2.6 11.5 2.6 19.2 1.7 8.9-0.9 28.1-6.4 40.5-8.5 23.9-4.3 65.2-8.5 122.3-6.8 31.5 0.9 42.6-8.1 53.2-21.3C559.9 512.3 548 514.4 548 514.4"/></svg>