<?xml version="1.0" encoding="UTF-8" standalone="no"?>
<!-- Generator: Adobe Illustrator 21.0.0, SVG Export Plug-In . SVG Version: 6.00 Build 0)  -->

<svg
   xmlns:dc="http://purl.org/dc/elements/1.1/"
   xmlns:cc="http://creativecommons.org/ns#"
   xmlns:rdf="http://www.w3.org/1999/02/22-rdf-syntax-ns#"
   xmlns:svg="http://www.w3.org/2000/svg"
   xmlns="http://www.w3.org/2000/svg"
   xmlns:sodipodi="http://sodipodi.sourceforge.net/DTD/sodipodi-0.dtd"
   xmlns:inkscape="http://www.inkscape.org/namespaces/inkscape"
   version="1.0"
   x="0px"
   y="0px"
   viewBox="0 0 62.778974 62.778973"
   xml:space="preserve"
   id="svg80"
   sodipodi:docname="ug-earth-globe-with-continents-silhouettes.svg"
   inkscape:version="0.92.4 (5da689c313, 2019-01-14)"
   width="62.778973"
   height="62.778973"><metadata
   id="metadata86"><rdf:RDF><cc:Work
       rdf:about=""><dc:format>image/svg+xml</dc:format><dc:type
         rdf:resource="http://purl.org/dc/dcmitype/StillImage" /><dc:title /></cc:Work></rdf:RDF></metadata><defs
   id="defs84"><clipPath
     id="SVGID_2_-5"><rect
       x="0"
       id="use10-6"
       y="1"
       width="62"
       height="62" /></clipPath><clipPath
     id="SVGID_2_-9"><rect
       x="0"
       id="use10-4"
       y="1"
       width="62"
       height="62" /></clipPath><clipPath
     id="SVGID_2_-59"><rect
       x="0"
       id="use10-69"
       y="1"
       width="62"
       height="62" /></clipPath><clipPath
     id="SVGID_2_-4"><rect
       x="0"
       id="use10-8"
       y="1"
       width="62"
       height="62" /></clipPath><clipPath
     id="SVGID_2_-1"><rect
       x="0"
       id="use10-2"
       y="1"
       width="62"
       height="62" /></clipPath><clipPath
     id="clipPath1063"><rect
       x="0"
       id="use1061"
       y="1"
       width="62"
       height="62" /></clipPath><clipPath
     id="clipPath1067"><rect
       x="0"
       id="use1065"
       y="1"
       width="62"
       height="62" /></clipPath><clipPath
     id="clipPath1071"><rect
       x="0"
       id="use1069"
       y="1"
       width="62"
       height="62" /></clipPath><clipPath
     id="clipPath1075"><rect
       x="0"
       id="use1073"
       y="1"
       width="62"
       height="62" /></clipPath><clipPath
     id="clipPath1079"><rect
       x="0"
       id="use1077"
       y="1"
       width="62"
       height="62" /></clipPath><clipPath
     id="clipPath1083"><rect
       x="0"
       id="use1081"
       y="1"
       width="62"
       height="62" /></clipPath><clipPath
     id="clipPath1087"><rect
       x="0"
       id="use1085"
       y="1"
       width="62"
       height="62" /></clipPath><clipPath
     id="clipPath1091"><rect
       x="0"
       id="use1089"
       y="1"
       width="62"
       height="62" /></clipPath><clipPath
     id="clipPath1095"><rect
       x="0"
       id="use1093"
       y="1"
       width="62"
       height="62" /></clipPath><clipPath
     id="clipPath1099"><rect
       x="0"
       id="use1097"
       y="1"
       width="62"
       height="62" /></clipPath><clipPath
     id="clipPath1103"><rect
       x="0"
       id="use1101"
       y="1"
       width="62"
       height="62" /></clipPath><clipPath
     id="clipPath1107"><rect
       x="0"
       id="use1105"
       y="1"
       width="62"
       height="62" /></clipPath><clipPath
     id="clipPath1111"><rect
       x="0"
       id="use1109"
       y="1"
       width="62"
       height="62" /></clipPath><clipPath
     id="clipPath1115"><rect
       x="0"
       id="use1113"
       y="1"
       width="62"
       height="62" /></clipPath><clipPath
     id="clipPath1119"><rect
       x="0"
       id="use1117"
       y="1"
       width="62"
       height="62" /></clipPath><clipPath
     id="clipPath1123"><rect
       x="0"
       id="use1121"
       y="1"
       width="62"
       height="62" /></clipPath><clipPath
     id="clipPath1127"><rect
       x="0"
       id="use1125"
       y="1"
       width="62"
       height="62" /></clipPath><clipPath
     id="clipPath1131"><rect
       x="0"
       id="use1129"
       y="1"
       width="62"
       height="62" /></clipPath><clipPath
     id="clipPath1135"><rect
       x="0"
       id="use1133"
       y="1"
       width="62"
       height="62" /></clipPath><clipPath
     id="clipPath1139"><rect
       x="0"
       id="use1137"
       y="1"
       width="62"
       height="62" /></clipPath></defs><sodipodi:namedview
   pagecolor="#ffffff"
   bordercolor="#666666"
   borderopacity="1"
   objecttolerance="10"
   gridtolerance="10"
   guidetolerance="10"
   inkscape:pageopacity="0"
   inkscape:pageshadow="2"
   inkscape:window-width="1920"
   inkscape:window-height="1057"
   id="namedview82"
   showgrid="false"
   inkscape:zoom="5.2149125"
   inkscape:cx="2.993943"
   inkscape:cy="29.448364"
   inkscape:window-x="1672"
   inkscape:window-y="-8"
   inkscape:window-maximized="1"
   inkscape:current-layer="g2167"
   fit-margin-top="0"
   fit-margin-left="0"
   fit-margin-right="0"
   fit-margin-bottom="0" />
<style
   type="text/css"
   id="style2">
	.st0{fill:none;stroke:#000000;stroke-width:2.3;stroke-miterlimit:10;}
	.st1{clip-path:url(#SVGID_2_);fill:#080808;}
	.st2{clip-path:url(#SVGID_2_);fill:#231F20;}
	.st3{clip-path:url(#SVGID_2_);}
	.st4{fill:#080808;}
</style>


<g
   transform="translate(-76.47426,1.3306082)"
   style="display:inline"
   inkscape:label="top copy"
   id="g2167"
   inkscape:groupmode="layer"><path
   mask="none"
   transform="translate(75.74432,-2.0134566)"
   inkscape:connector-curvature="0"
   id="path2115"
   clip-path="url(#SVGID_2_)"
   d="m 14.1,37 c 0.2,-0.1 0.3,-0.4 0.5,-0.4 0.1,0 0.3,0 0.4,0 0.3,-0.1 0.1,-0.3 -0.1,-0.3 -0.2,-0.1 -0.5,0 -0.7,0 -0.3,0 -0.5,0 -0.7,-0.2 -0.1,-0.1 -0.1,-0.2 -0.2,-0.3 -0.1,-0.1 -0.2,-0.2 -0.3,-0.4 -0.1,-0.2 -0.1,-0.5 -0.1,-0.7 0,-0.1 0,-0.3 0,-0.4 0,-0.1 -0.1,-0.3 -0.1,-0.4 -0.1,-0.1 -0.3,-0.1 -0.4,-0.1 -0.2,0 -0.4,0 -0.6,-0.1 -0.1,0 -0.3,-0.1 -0.4,-0.1 -0.1,-0.1 0,-0.3 0,-0.4 0.1,-0.2 0.2,-0.4 0.3,-0.6 0.1,-0.2 0.2,-0.4 0.2,-0.6 0,-0.1 0,-0.3 0,-0.4 0,-0.2 0,-0.2 -0.2,-0.2 -0.2,0 -0.3,0.1 -0.4,0.1 0,0.1 -0.1,0 -0.1,0.1 -0.2,0.2 -0.3,0.5 -0.5,0.7 -0.2,0.2 -0.6,0.2 -0.8,0.2 C 9.6,32.5 9.5,32.2 9.3,32 9.2,31.9 9.1,31.8 9.1,31.6 9,31.4 8.9,31.1 8.9,30.8 8.9,30.6 8.9,30.5 9,30.3 8.9,30 8.9,29.8 9,29.7 9,29.6 9.1,29.4 9.2,29.3 9.3,29.1 9.3,29 9.4,28.9 c 0,-0.1 0.2,-0.3 0.3,-0.3 0.1,-0.1 0.4,-0.3 0.5,-0.3 0.4,0 0.7,0.1 1,0.1 0.2,0 0.3,0 0.4,-0.1 0.1,-0.1 0.1,-0.2 0.2,-0.3 0.1,-0.1 0.2,-0.1 0.4,-0.1 0.2,0 0.2,0.1 0.4,0.1 0.1,0.1 0.2,0.1 0.4,0 0.2,-0.1 0.2,0 0.3,0.2 0,0.1 0,0.3 0.1,0.4 0.1,0.3 0.2,0.6 0.3,0.8 0.1,0.1 0.2,0.3 0.3,0.3 0.1,0.1 0.2,0 0.3,0 0.1,-0.3 0,-0.7 -0.1,-1 0,-0.2 -0.1,-0.3 -0.1,-0.5 0,-0.4 -0.1,-0.8 0.3,-1.1 0.1,-0.1 0.2,-0.1 0.3,-0.2 0.1,-0.1 0.2,-0.2 0.3,-0.2 0,-0.1 0.2,-0.2 0.3,-0.3 0.2,-0.2 0.5,-0.4 0.7,-0.7 0.1,-0.1 0.1,-0.2 0.2,-0.3 0,-0.1 0,-0.3 0,-0.5 0,-0.3 0.2,-0.7 0.5,-0.7 0.1,0 0.2,0 0.2,-0.2 0,-0.1 0.1,-0.2 0.1,-0.3 0.2,-0.1 0.3,-0.4 0.5,-0.5 0.2,-0.1 0.5,-0.1 0.7,-0.3 0.2,-0.1 0.2,-0.2 0.2,-0.5 0,-0.2 0.2,-0.3 0.3,-0.4 0.2,-0.1 0.3,-0.3 0.5,-0.4 0.2,-0.1 0.4,-0.1 0.6,-0.1 0.7,0 1.4,0 2.1,-0.2 0.2,-0.1 0.4,-0.2 0.5,-0.3 0.1,-0.1 0.1,-0.3 0,-0.4 -0.2,-0.2 -0.6,0.2 -0.8,0.3 -0.3,0.2 -0.7,0 -0.8,-0.3 -0.1,-0.1 -0.1,-0.3 0,-0.4 0.1,-0.1 0.2,-0.2 0.3,-0.3 0,-0.1 0.1,-0.1 0.1,-0.2 0,-0.1 0,-0.1 -0.1,-0.1 -0.1,0 -0.3,0 -0.4,0 -0.1,0 -0.3,0.1 -0.4,0.1 -0.1,0 -0.5,0.1 -0.6,0 0.1,-0.1 0.1,-0.1 0.2,-0.2 0.1,-0.1 0.2,-0.1 0.4,-0.2 0.2,-0.1 0.3,-0.1 0.5,-0.3 -0.1,0 0.2,0 0.5,0 0.3,0 0.6,-0.1 0.9,-0.1 0.2,0 0.5,0 0.7,-0.1 0.1,-0.1 0.2,-0.2 0.3,-0.2 0.1,-0.1 0.2,-0.1 0.3,-0.1 0.2,0 0.3,-0.1 0.5,-0.1 0.3,-0.1 0.4,-0.5 0.2,-0.7 C 24.1,17.6 24,17.6 23.9,17.5 23.8,17.4 23.8,17.3 23.8,17.1 23.7,16.8 23.3,16.9 23.1,16.7 23,16.5 23,16.1 23,15.9 c 0,-0.1 0,-0.3 -0.1,-0.4 -0.1,-0.1 -0.2,-0.2 -0.3,-0.3 -0.1,0 -0.1,-0.2 -0.1,-0.3 0,-0.1 -0.1,-0.2 -0.2,-0.3 -0.2,-0.1 -0.3,0.2 -0.4,0.3 -0.1,0.1 -0.3,0.2 -0.5,0.3 -0.1,0.1 -0.1,0.1 -0.3,0.1 -0.1,0 -0.2,0 -0.3,-0.1 -0.2,-0.1 -0.2,-0.1 -0.1,-0.3 0,-0.1 0.1,-0.3 0.1,-0.4 0,-0.2 0,-0.3 -0.1,-0.3 -0.1,0 -0.1,0 -0.2,-0.1 -0.1,-0.1 0,-0.1 0,-0.1 -0.1,-0.2 -0.2,-0.2 -0.3,-0.2 -0.1,-0.1 -0.3,-0.1 -0.4,-0.2 -0.3,-0.1 -0.7,-0.1 -0.9,0 -0.2,0.2 -0.2,0.4 -0.3,0.6 -0.1,0.3 -0.2,0.6 -0.4,0.8 -0.1,0.1 -0.2,0.2 -0.1,0.4 0.1,0.2 0.3,0.2 0.3,0.5 0,0.4 -0.1,0.5 -0.4,0.7 -0.2,0.2 -0.5,0.2 -0.8,0.3 -0.1,0.1 -0.2,0.1 -0.3,0.3 0,0.1 0,0.3 0,0.4 0,0.2 0.1,0.7 -0.2,0.8 -0.1,0 -0.4,0 -0.5,-0.1 C 16,18.2 16,18.1 16,17.9 16,17.6 16.2,17.3 16.1,17.1 16,17 16,16.8 15.9,16.8 15.8,16.7 15.7,16.7 15.5,16.6 15.2,16.5 15.1,16.2 14.8,16.1 14.6,16 14.3,15.9 14.2,15.6 c -0.1,-0.3 -0.1,-0.8 0.1,-1 0.1,-0.1 0.2,-0.1 0.2,-0.2 0.2,-0.2 0.4,-0.3 0.5,-0.4 0.3,-0.2 0.6,-0.5 0.8,-0.7 0.2,-0.3 0.6,-0.5 0.8,-0.7 0.2,-0.2 0.5,-0.3 0.8,-0.5 0.1,-0.1 0.3,-0.1 0.4,-0.2 0.1,0 0.3,0 0.5,0 0.3,0 0.6,-0.1 0.8,-0.3 0.2,-0.2 0.3,-0.5 0.3,-0.8 0,-0.3 -0.5,-0.1 -0.7,0 -0.2,0.2 -0.5,0.5 -0.8,0.4 0,-0.1 0,-0.1 0,-0.2 -0.4,0 -0.2,-0.4 -0.1,-0.5 0.1,-0.2 0.1,-0.3 0.1,-0.5 0,-0.2 0,-0.4 0,-0.6 -0.2,0 -0.4,0.1 -0.5,0.2 -0.1,0 -0.1,0.1 -0.2,0.2 -0.1,0.1 -0.1,0.1 -0.2,0.2 -0.1,0.1 0,0.2 0,0.3 0,0.1 0,0.2 -0.1,0.3 -0.1,0.1 -0.2,0.3 -0.3,0.4 -0.2,0.1 -0.4,0.3 -0.6,0.4 -0.1,0 -0.3,0 -0.4,0 -0.2,0 -0.3,-0.1 -0.5,-0.1 -0.2,0 -0.7,-0.1 -0.8,0 -0.1,0.1 0,0.3 -0.3,0.3 -0.1,0 -0.1,0 -0.2,0 0,0 0,0 -0.1,-0.1 -0.1,0 -0.1,0 -0.2,0 0,-0.1 -0.1,-0.1 -0.1,-0.2 0,-0.1 0,-0.2 0,-0.3 0,-0.2 0,-0.5 -0.2,-0.6 -0.2,-0.1 -0.4,0.1 -0.6,0.1 -0.1,0 -0.2,0 -0.3,0 -0.1,0 -0.2,-0.1 -0.3,-0.2 v 0.1 c -0.1,0.1 -0.3,0.3 -0.4,0.4 -0.2,0.2 -0.4,0.4 -0.6,0.6 -0.2,0.1 -0.4,0.3 -0.5,0.5 -0.1,0.1 -0.2,0.2 -0.3,0.4 0,0.1 -0.1,0.2 -0.2,0.2 -0.1,0.1 -0.2,0.3 -0.3,0.4 0,0.1 -0.1,0.1 -0.2,0.2 0,0 -0.1,0.1 -0.1,0.1 -0.1,0 -0.2,0.1 -0.3,0.1 0,0 0,0 0,0 -0.2,0 -0.3,0.3 -0.4,0.4 -0.1,0.2 -0.4,0.3 -0.4,0.5 -0.1,0 -0.1,0.1 -0.1,0.2 0,0 0,0 0,0 C 8.2,14.6 8,14.8 8,15 7.9,15.2 7.8,15.4 7.8,15.6 7.6,16 7.5,16.3 7.4,16.8 7.3,17.4 7,18 6.8,18.6 6.7,18.8 6.7,19.1 6.6,19.3 6.5,19.7 6.4,20 6.1,20.3 6,20.4 6,20.5 5.9,20.5 5.8,20.7 5.7,20.8 5.7,21 c -0.1,0.2 -0.2,0.4 -0.2,0.6 0,0.2 -0.2,0.5 -0.3,0.7 -0.1,0.2 -0.1,0.6 -0.2,0.8 -0.1,0.3 -0.1,0.5 -0.2,0.8 0,0.3 -0.1,0.6 -0.1,0.9 v 0.7 c 0,0.1 0,0.2 0,0.3 0,0.1 0.1,0.1 0.1,0.2 0,0 0,0 0,0 0,0.1 0.1,0.2 0.1,0.3 0,0.1 0.1,0.2 0.1,0.3 0,0.2 0,0.5 0,0.7 0,0.3 0.1,0.6 0.1,0.9 0,0.3 0,0.6 0.1,0.9 0.1,0.4 0.2,1.2 0.7,1.4 0,0 0,-0.1 0,-0.1 0,-0.1 0,-0.2 0,-0.3 0,-0.1 0,-0.2 -0.1,-0.3 C 5.7,29.6 5.6,29.3 5.5,29.1 5.4,28.8 5.3,28.5 5.3,28.2 5.3,28 5.2,27.5 5.5,27.4 c 0.1,0.3 0.1,0.6 0.2,0.9 0,0.1 0,0.3 0.1,0.4 0,0.1 0.1,0.3 0.2,0.4 0.1,0 0.1,0.3 0.2,0.3 0,0.1 0.1,0.3 0.1,0.3 0,0.1 0.1,0.2 0.1,0.4 0,0.2 0,0.4 0.1,0.7 0.5,-0.1 0.5,0 0.6,0.1 0.1,0.2 0.1,0.4 0.1,0.7 0,0.2 0,0.5 0.1,0.6 0.1,0.2 0.2,0.4 0.3,0.6 0,0 0.1,0.1 0.1,0.1 0,0 0,0 0,0 0,0.1 0.1,0.1 0.2,0.2 0.1,0.1 0.2,0.2 0.3,0.2 0,0.1 0.4,0.2 0.6,0.3 0.2,0.1 0.4,0 0.6,0 0.2,0 0.4,0 0.6,0.1 0.3,0.1 0.4,0.1 0.5,0.3 0.1,0.2 0.3,0.4 0.5,0.6 0.1,0.1 0.2,0.1 0.3,0.2 0.1,0.1 0.2,0.2 0.3,0.2 0.2,0.1 0.5,0.3 0.6,0.5 0.1,0.1 0.1,0.2 0.2,0.3 0,0.1 0.1,0.2 0.2,0.3 0.1,0.1 0.1,0.1 0.3,0.2 0.2,0.1 0.4,0.3 0.6,0.4 0.1,0.1 0.4,0.4 0.6,0.3"
   class="st1"
   style="fill:#080808" />
			
		<path
   mask="none"
   transform="translate(75.74432,-2.0134566)"
   inkscape:connector-curvature="0"
   class="st1"
   d="m 29.6,43.9 c 0,-0.1 0,-0.3 -0.1,-0.4 -0.1,-0.1 -0.2,-0.2 -0.4,-0.2 -0.1,0 -0.3,0 -0.4,-0.1 -0.1,0 -0.2,-0.1 -0.3,-0.2 -0.2,-0.2 -0.5,-0.5 -0.8,-0.5 -0.2,0 -0.3,0 -0.5,-0.1 -0.2,0 -0.5,0 -0.7,0 -0.2,-0.1 -0.5,-0.3 -0.7,-0.4 -0.1,-0.1 -0.3,-0.2 -0.4,-0.2 -0.1,0 -0.3,0 -0.4,0 -0.1,0 -0.1,-0.2 -0.3,-0.2 -0.1,0 -0.3,0 -0.4,0 -0.2,0 -0.3,0 -0.4,0.2 -0.1,0.1 0,0.2 -0.1,0.4 0,0 -0.1,0 -0.1,0 0,-0.1 -0.2,-0.1 -0.2,-0.1 0,-0.2 0.1,-0.3 0.2,-0.5 0.1,-0.1 0.3,-0.3 0.2,-0.5 -0.1,-0.2 -0.2,-0.3 -0.3,-0.5 -0.1,-0.1 -0.1,-0.2 -0.2,-0.3 0,-0.1 0,-0.1 -0.1,-0.2 0,0 -0.1,0 -0.1,-0.1 C 23,40 22.9,39.9 22.8,39.8 22.6,39.7 22.4,39.5 22.1,39.4 21.8,39.3 21.5,39.3 21.2,39.3 20.9,39.2 20.6,39.2 20.4,39 20.3,38.9 20.3,38.8 20.2,38.7 20,38.4 19.3,38.5 19.2,38 c 0,-0.1 0,-0.2 0,-0.3 0,-0.1 -0.2,-0.2 -0.3,-0.2 -0.3,0 -0.5,0.1 -0.7,0.1 -0.3,0 -0.6,0 -0.8,-0.1 -0.1,0 -0.3,0 -0.4,0 -0.1,0 -0.2,-0.1 -0.3,-0.1 0,-0.2 -0.2,-0.3 -0.3,-0.3 -0.2,0 -0.4,0 -0.5,0.1 -0.1,0.1 -0.3,0.2 -0.3,0.3 0,0.1 0,0.2 0.1,0.2 0,0.1 0,0.2 0,0.3 -0.1,0 -0.2,0 -0.2,-0.1 0,-0.1 0,-0.2 0,-0.3 0,-0.2 0,-0.3 0.1,-0.5 0,-0.1 0.1,-0.2 0,-0.3 0,-0.1 -0.2,-0.1 -0.3,-0.1 -0.4,0 0,0.4 -0.3,0.5 -0.1,0.1 -0.2,0 -0.3,0.1 -0.1,0 -0.2,0.1 -0.3,0.2 -0.1,0.1 -0.1,0.2 -0.2,0.3 0,0.1 -0.1,0.2 -0.2,0.3 -0.2,0 -0.1,0.4 -0.2,0.5 -0.1,0.1 -0.2,0.1 -0.2,0.3 0,0.1 0.1,0.2 0.1,0.3 0.1,0.1 0.2,0.3 0.3,0.4 0.1,0.1 0.2,0.2 0.2,0.4 0,0.2 0,0.3 -0.1,0.4 -0.1,0.1 -0.2,0.1 -0.3,0.2 -0.3,0.3 -0.6,0.9 -0.5,1.4 0.1,0 0.1,0.1 0.1,0.2 0.2,0.1 0.2,0.5 0.2,0.7 0,0.3 0,0.6 0.1,0.8 0.1,0.2 0.3,0.3 0.4,0.5 0.2,0.2 0.3,0.3 0.4,0.5 0.2,0.2 0.4,0.4 0.6,0.7 0.2,0.2 0.3,0.5 0.5,0.7 0.2,0.3 0.3,0.5 0.6,0.8 0.2,0.2 0.5,0.3 0.8,0.4 0.3,0.1 0.7,0.3 1,0.6 0.1,0.1 0.2,0.2 0.2,0.3 0.1,0.2 0.3,0.5 0.3,0.7 0.1,0.3 0.1,0.6 0.3,0.9 0.1,0.3 0.3,0.6 0.4,0.9 0,0 0,0 0,0 0.1,0.2 0.3,0.4 0.3,0.7 0,0.3 0,0.6 0.1,0.8 0.1,0.3 0.2,0.6 0.3,0.9 0,0.1 0.1,0.2 0.1,0.4 0.1,0.2 0.1,0.3 0.2,0.4 0.1,0.1 0.1,0.3 0.1,0.4 0.1,0.3 0.3,0.5 0.5,0.8 0.3,0.3 0.6,0.5 0.8,0.8 0.1,0.3 0.1,0.5 0.3,0.7 0.2,0.2 0.4,0.4 0.6,0.6 0.2,0.3 0.6,0.5 0.8,0.8 0.1,0.1 0.2,0.2 0.3,0.3 0.1,0.1 0.3,0.1 0.3,0.2 0.2,0 0.4,0.2 0.7,0.3 0.1,0.1 0.3,0.1 0.4,0.1 0.2,0 0.3,0 0.5,-0.1 0.1,0 0.2,-0.1 0.1,-0.2 0,-0.1 -0.2,-0.1 -0.3,-0.1 -0.3,-0.1 -0.5,-0.1 -0.7,-0.2 -0.1,-0.1 -0.2,-0.1 -0.3,-0.2 -0.1,0 -0.2,-0.2 -0.3,-0.2 0,-0.1 -0.1,-0.2 -0.2,-0.2 -0.1,-0.1 -0.1,-0.2 -0.2,-0.3 0,-0.2 0,-0.5 -0.1,-0.6 0,-0.1 -0.2,-0.1 -0.3,-0.1 -0.1,-0.1 -0.1,-0.1 -0.2,-0.2 -0.1,-0.1 -0.1,-0.3 0,-0.5 0,-0.1 0.2,-0.4 0.1,-0.6 -0.1,-0.1 -0.4,-0.1 -0.4,-0.3 0.1,0 0.2,-0.1 0.3,-0.1 0,-0.2 0,-0.4 0.2,-0.5 0.1,0 0.2,-0.1 0.3,-0.1 0.1,0 0.2,-0.1 0.3,-0.1 0,0 0.4,-0.3 0.2,-0.4 0,0 0,-0.1 0,-0.1 -0.2,-0.1 -0.3,-0.3 -0.4,-0.4 -0.1,-0.1 -0.2,-0.1 -0.2,-0.2 0,-0.1 0,-0.1 0.1,-0.2 0.2,0 0.4,0 0.6,0 0.1,0 0.2,0 0.3,0 0.1,0 0.1,-0.1 0.2,-0.1 0.1,-0.1 0.1,-0.3 0.2,-0.4 0,-0.1 0.1,-0.2 0.2,-0.3 0.1,-0.1 0.2,-0.2 0.3,-0.3 0,-0.1 0.1,-0.2 0.1,-0.2 0.1,-0.2 0.2,-0.4 0.2,-0.6 0,-0.4 -0.2,-0.8 0.1,-1.1 0.1,-0.2 0.5,-0.3 0.7,-0.3 0,-0.2 0.7,-0.3 0.9,-0.3 0.3,-0.1 0.4,-0.2 0.5,-0.5 0.1,-0.2 0.2,-0.5 0.2,-0.7 0.1,-0.3 0.1,-0.5 0.1,-0.8 0,-0.1 0,-0.3 0,-0.4 0,-0.2 0,-0.4 0.1,-0.6 0,-0.2 0,-0.4 0.2,-0.5 0.1,-0.1 0.2,-0.2 0.3,-0.3 0.1,-0.1 0.2,-0.1 0.3,-0.2 0.1,0 0.2,-0.2 0.2,-0.3 0.1,-0.1 0.2,-0.2 0.2,-0.3 0.1,-0.1 0,-0.2 0,-0.4 0.2,-0.3 0.2,-0.4 0.2,-0.5"
   clip-path="url(#SVGID_2_)"
   id="path2117"
   style="fill:#080808" /><path
   mask="none"
   transform="translate(75.74432,-2.0134566)"
   inkscape:connector-curvature="0"
   class="st2"
   d="m 26.4,57.7 v 0.1 c 0,0.1 0.1,0 0.1,0.1 0.1,0.1 0.1,0.1 0.2,0.1 0.1,0 0.2,0 0.2,-0.1 0,-0.1 0,-0.2 0,-0.3 -0.1,0 -0.5,-0.1 -0.5,0.1"
   clip-path="url(#SVGID_2_)"
   id="path2119"
   style="fill:#231f20" /><path
   mask="none"
   transform="translate(75.74432,-2.0134566)"
   inkscape:connector-curvature="0"
   class="st3"
   d="m 56.6,22.1 c -0.1,0.2 -0.2,0.2 -0.5,0.1 C 55.4,22 55.2,21 55,20.4 v 0 C 55,20 54.8,20 54.5,19.9 c -0.2,-0.1 -0.3,-0.4 -0.4,-0.7 -0.2,-0.5 -0.3,-1 0.3,-1.3 0.2,-0.1 0.5,-0.1 0.6,0.2 0.1,0.3 -0.2,0.4 -0.2,0.7 -0.1,0.5 0.4,0.9 0.9,1.1 0.1,0 0.1,0 0.1,0.1 0.1,0 0.5,0.1 0.5,0.2 0.1,0.1 0,0.4 -0.2,0.5 0,0.2 0.2,0.3 0.3,0.5 0.1,0.1 0.2,0.3 0.2,0.5 0.1,-0.1 0.1,0.3 0,0.4 m -3.5,-1.7 c -0.4,0 -0.9,0 -1.2,-0.1 -0.2,-0.1 -1.1,-0.4 -1.1,0 0,0.2 -0.7,-0.1 -0.7,0.2 -0.4,-0.1 -0.5,-0.6 -0.6,-0.9 0,-0.5 0,-0.8 0.2,-1.2 0.3,-0.2 0.3,-0.2 0.6,0 0.3,0.2 0.3,0.3 0.3,0.6 0.2,0.1 1.1,0.2 1,-0.2 -0.3,0 -0.5,-0.4 -0.3,-0.6 0.1,-0.1 0.4,-0.2 0.5,-0.2 0.1,0.1 0,0.4 0.1,0.5 0.2,0.5 0.9,0.7 1.3,1.1 0,0.1 -0.1,0.5 -0.1,0.8 m -6.6,-7.7 c -0.2,0.1 -0.5,0.1 -0.8,0.1 -0.1,0.4 0.7,0.4 0.5,0.8 0,0 -0.1,0.1 -0.1,0.2 -0.1,0 -0.2,0 -0.2,0.1 -0.1,0.1 -0.1,0.2 -0.1,0.4 0,0.1 0,0.3 -0.1,0.4 -0.1,0.1 -0.1,0.2 -0.3,0.3 -0.1,0.1 -0.2,0.2 -0.4,0.2 -0.2,0 -0.3,-0.1 -0.4,-0.1 -0.2,0 -0.4,0 -0.5,0.1 -0.1,0.1 -0.2,0.1 -0.4,0.1 -0.2,0 -0.9,0 -0.7,-0.4 0.1,-0.1 0.4,-0.2 0.5,-0.3 0.2,0 0.3,-0.1 0.4,-0.1 0.3,-0.2 0.5,-0.5 0.4,-0.9 0,-0.2 -0.1,-0.3 -0.1,-0.5 0,-0.1 -0.2,-0.2 -0.1,-0.3 h 0.1 c -0.1,0 -0.3,-0.2 -0.3,-0.3 -0.1,-0.1 -0.2,-0.2 -0.2,-0.3 0,0 -0.1,-0.1 -0.1,-0.1 0,0 -0.1,-0.1 -0.2,-0.1 -0.1,-0.2 0.2,-0.3 0.3,-0.4 0.1,-0.2 0,-0.3 -0.1,-0.5 -0.1,-0.1 -0.2,-0.3 -0.1,-0.4 0,-0.1 0.2,-0.2 0.3,-0.3 0.1,-0.1 0.3,-0.2 0.5,-0.1 0.1,0 0.2,0 0.3,0 0.2,0.3 -0.1,0.6 -0.2,0.9 -0.1,0.3 0,0.6 0.1,0.9 0.1,0.4 0.5,0.7 0.9,0.6 0.2,0 0.4,-0.1 0.6,-0.1 0.2,0 0.4,0 0.6,0 0.3,-0.2 0.1,0 -0.1,0.1 m 1.1,-5.8 -0.1,0.2 c -0.1,0.2 -0.1,0.4 0.1,0.5 0.2,0.1 0.3,0.2 0.5,0.3 0.2,0.1 0.3,0.3 0.4,0.4 0.1,0 0.1,0.1 0.2,0.2 0.1,0 0.2,0 0.3,0.1 0.1,0.1 0.1,0.4 -0.1,0.3 -0.1,-0.1 -0.2,-0.2 -0.4,-0.1 -0.1,0 -0.1,0.1 -0.1,0.2 0,0 -0.1,0.1 -0.1,0.1 -0.1,0 -0.3,0.1 -0.3,0.2 0,0 0,0 0,0 0,0.1 -0.2,0.3 -0.3,0.3 0,0.1 -0.1,0.1 -0.1,0.2 -0.1,0.1 -0.2,0 -0.3,0.1 -0.1,0.1 -0.2,0.2 -0.2,0.3 0,0.1 0.1,0.3 0.1,0.4 -0.1,0.1 -0.7,0.1 -0.8,0.1 -0.2,0 -0.3,0 -0.5,0 0,-0.1 0.1,-0.3 0.2,-0.3 0,0 0,-0.1 -0.1,-0.1 0.2,0 0.4,0.1 0.6,0 C 46.7,10.2 46.8,10 46.8,9.8 46.7,9.6 46.3,9.4 46.1,9.3 45.9,9.2 45.7,9.1 45.5,9.1 45.3,8.9 44.8,8.9 44.5,8.7 44.3,8.6 43.8,8.6 43.7,8.4 c -0.2,0 -0.3,-0.1 -0.5,-0.1 -0.2,0 -0.4,0 -0.5,0 -0.4,0 -0.7,0.3 -0.8,0.6 -0.2,0.3 -0.3,0.5 -0.4,0.9 -0.1,0.3 -0.2,0.7 -0.3,1 -0.1,0.3 -0.2,0.4 -0.4,0.6 -0.1,0.1 -0.2,0.1 -0.3,0.2 -0.1,0.1 -0.1,0.2 -0.1,0.4 0,0.2 0,0.5 0.1,0.8 0,0.1 0.2,0.5 0.4,0.5 0.1,0.1 0.3,0.1 0.4,0.1 0.1,0 0.1,0 0.2,0 0,0 0.1,-0.1 0.1,-0.2 0.1,-0.1 0.2,-0.1 0.4,-0.1 0.1,0 0.3,0.1 0.3,0.2 0.1,0.1 0.1,0.3 0.2,0.4 0.1,0.1 0.4,0.2 0.4,0.3 0.2,0.1 0.3,0.4 0.2,0.6 -0.2,0 -0.3,0.1 -0.4,0.3 -0.2,0 -0.3,0.2 -0.4,0.3 -0.1,0.1 -0.3,0.3 -0.5,0.4 0,0.1 -0.2,0.2 -0.3,0.2 -0.1,0.1 -0.1,0.2 -0.2,0.3 -0.1,0.2 -0.3,0.4 -0.6,0.5 -0.1,0.1 -0.3,0.3 -0.4,0.4 -0.1,0.1 -0.3,0.3 -0.4,0.3 -0.4,0.1 -0.8,-0.1 -1.2,0 0,0.2 0.1,0.3 0.3,0.4 0.1,0.1 0.2,0.2 0.4,0.3 0.2,0.1 0.7,0.3 0.7,0.6 0.1,0.1 0.1,0.3 0.1,0.4 0,0.2 0.1,0.3 -0.1,0.4 0,0 0,0.1 0,0.1 -0.4,0 -0.8,0 -1.2,0.1 -0.4,0.1 -0.7,-0.1 -1.1,0 0,0.4 -0.1,0.8 -0.1,1.1 0,0.3 0.1,0.5 0.1,0.8 0,0.3 0.1,0.4 0.3,0.6 0.1,0.1 0.4,0.4 0.5,0.4 0,0 0,0 0,0 0.4,0.1 0.7,0.1 1.1,0 0.2,0 0.4,-0.1 0.6,-0.1 0.2,-0.1 0.3,-0.3 0.5,-0.3 0.1,-0.2 0.3,-0.4 0.4,-0.6 0.1,-0.1 0.1,-0.2 0.2,-0.4 0,-0.1 0,-0.3 0.1,-0.4 0,0 0,0 0,0 0,-0.1 0.1,-0.2 0.2,-0.3 0,-0.1 0.1,-0.1 0.1,-0.2 0.1,-0.1 0.1,-0.1 0.1,-0.2 0.1,-0.2 0.1,-0.2 0.3,-0.3 0.2,-0.1 0.3,-0.1 0.5,-0.1 0.2,0 0.3,0 0.4,-0.1 0.3,-0.2 0.7,-0.2 1,-0.2 0.1,0 0.3,0.1 0.4,0.1 0.1,0.1 0.2,0.2 0.3,0.4 0.1,0.1 0.2,0.2 0.3,0.2 0.1,0.1 0.2,0.2 0.4,0.3 0.1,0.1 0.3,0.2 0.4,0.3 0.1,0.1 0.2,0.2 0.3,0.3 0,0.1 0.2,0.2 0.2,0.3 0.1,0.1 0.1,0.2 0,0.4 -0.1,0.3 -0.4,0.1 -0.6,0.1 -0.1,0 -0.3,-0.1 -0.4,0 -0.1,0.1 0,0.3 0,0.4 0.1,0.1 0.3,0.1 0.5,0.2 0.1,0.1 0.2,0.1 0.4,0.1 0.1,-0.3 0.3,-0.6 0.5,-0.8 0.1,-0.1 0.2,-0.2 0.2,-0.4 0,-0.1 0.1,-0.4 -0.1,-0.4 0,0 0,0 0,0 -0.1,-0.1 -0.5,-0.3 -0.6,-0.4 -0.2,0 -0.3,-0.1 -0.4,-0.2 -0.1,-0.1 -0.4,-0.2 -0.4,-0.3 -0.1,0 -0.3,-0.2 -0.4,-0.3 -0.1,-0.1 -0.2,-0.4 -0.2,-0.5 0.1,0 0.2,0 0.3,0 0.1,0 0.2,0.2 0.3,0.2 0.2,0.1 0.4,0.2 0.6,0.4 0.2,0.1 0.4,0.2 0.6,0.4 0.1,0.1 0.4,0.3 0.4,0.5 0.1,0 0.2,0.3 0.2,0.4 0.1,0.1 0.2,0.2 0.3,0.3 0.1,0.1 0.3,0.1 0.3,0.3 0.1,0.1 0.1,0.2 0.2,0.3 0.2,0.2 0.2,0.4 0.3,0.6 0.1,0 0.1,0 0.2,0.1 0,0.1 0.1,0.1 0.2,0.2 0.1,0 0.1,0 0.2,0 0,-0.2 0,-0.3 0,-0.5 0,-0.2 -0.1,-0.3 -0.2,-0.5 -0.2,-0.3 -0.2,-0.9 0.3,-0.8 0,0 0,0 0,0 0.1,0 0.1,0.2 0.2,0.3 0.1,0.1 0.1,0.2 0.2,0.3 0.1,0.1 0.2,0.2 0.3,0.3 0.1,0.1 0.2,0.2 0.3,0.3 0.2,0.5 0.5,0.7 1,0.5 0.2,-0.1 0.4,-0.1 0.6,-0.1 0.2,0 0.5,0 0.7,0 0.1,0.1 0.1,0.2 0.2,0.4 0,0.2 0.1,0.4 0.1,0.5 0,0.3 -0.1,0.6 -0.1,0.9 0,0.2 0,0.2 -0.2,0.3 -0.1,0.1 -0.3,0.1 -0.5,0.1 -0.4,0 -0.7,0 -1.1,-0.1 -0.7,-0.1 -1.2,-0.4 -1.8,-0.6 -0.1,0 -0.4,-0.1 -0.5,-0.1 -0.2,0.1 -0.2,0.3 -0.2,0.4 0,0.2 -0.1,0.2 -0.4,0.2 -0.2,0 -0.4,-0.1 -0.5,-0.2 C 47.2,24.3 47,24.1 46.8,24.1 46.6,24 46.3,24 46.2,24 45.8,23.9 45.5,23.8 45.1,23.7 45,23.6 44.9,23.4 44.9,23.3 c 0,-0.2 0.1,-0.4 0.1,-0.6 0,-0.4 -0.6,-0.4 -0.9,-0.4 -0.4,0 -0.8,0 -1.2,0 -0.2,0 -0.5,0 -0.7,0 -0.2,0 -0.3,0.1 -0.5,0.1 -0.4,0.1 -0.8,0.3 -1.1,0.4 -0.2,0.1 -0.7,0.3 -0.8,0 -0.3,0 -0.6,0 -0.7,0.3 0,0 0,0 0,0 -0.1,0.1 -0.2,0.2 -0.3,0.3 -0.1,0.1 -0.1,0.2 -0.3,0.3 -0.2,0.2 -0.5,0.5 -0.5,0.7 0,0.2 0,0.4 0,0.5 0,0.2 -0.2,0.3 -0.3,0.4 -0.1,0.1 -0.3,0.1 -0.5,0.2 -0.1,0.1 -0.3,0.2 -0.4,0.3 -0.2,0.2 -0.2,0.2 -0.2,0.5 -0.2,0.1 -0.2,0.3 -0.2,0.5 0,0.1 -0.1,0.2 -0.2,0.3 0,0.1 -0.1,0.2 -0.1,0.2 0,0.1 -0.1,0.2 -0.1,0.3 -0.3,0.3 -0.6,0.7 -0.5,1.2 0.1,0.1 0.1,0.4 0.2,0.5 0.1,0.2 0.1,0.4 0.1,0.6 0,0.2 0,0.4 -0.2,0.6 -0.1,0.2 -0.2,0.4 -0.2,0.6 0,0.3 0,0.6 0,0.9 0,0.3 0.3,0.4 0.3,0.7 0.1,0.1 0.1,0.2 0.2,0.2 0.1,0.1 0.2,0.2 0.3,0.3 0.1,0.1 0.2,0.2 0.4,0.3 0.1,0.1 0.2,0.2 0.3,0.3 0.2,0.2 0.5,0.4 0.7,0.6 0.2,0.2 0.4,0.4 0.7,0.5 0.3,0.2 0.5,0.3 0.8,0.4 0.4,0 0.7,0.1 1.1,0.1 0.4,0 0.7,-0.1 1.1,-0.1 0.4,0 0.7,-0.2 1,-0.3 0.1,-0.1 0.3,-0.1 0.5,-0.2 0.1,0 0.3,-0.1 0.5,0 0.2,0 0.3,0.2 0.4,0.2 0,0.1 0.2,0.1 0.2,0.2 0.1,0.1 0.1,0.2 0.2,0.2 0.2,0.1 0.4,0.1 0.7,0.1 0.3,0 0.4,0 0.5,0.3 0.1,0.1 0.1,0.3 0.1,0.5 0,0.2 -0.1,0.3 -0.1,0.5 0,0.1 0,0.3 -0.1,0.5 -0.1,0.3 0,0.7 0,1 0.1,0.3 0.4,0.5 0.6,0.8 0.1,0.3 0.3,0.5 0.4,0.9 0.1,0.3 0.1,0.6 0.1,0.9 0,0.3 0.1,0.6 0,0.9 -0.1,0 -0.2,0.2 -0.3,0.3 -0.2,0.2 -0.3,0.4 -0.4,0.6 -0.1,0.1 -0.2,0.3 -0.2,0.4 -0.1,0.3 -0.1,0.7 -0.1,1 0,0.4 0.2,0.5 0.2,0.8 0.1,0.6 0.1,1.4 0.1,2 0,0.4 0,0.7 0.1,1 0.1,0.3 0,0.6 0,0.9 0,0.2 0,0.3 -0.1,0.5 0,0.1 -0.1,0.3 0,0.4 0.1,0.2 0.9,0.2 1.1,0.1 0.4,-0.1 0.7,-0.2 1.1,-0.3 0.3,-0.1 0.6,-0.3 0.9,-0.5 0.3,-0.2 0.6,-0.4 0.8,-0.6 0.3,-0.2 0.6,-0.5 0.8,-0.9 0.2,-0.3 0.3,-0.7 0.5,-0.9 0.2,-0.2 0.6,-0.3 0.7,-0.6 0.2,-0.3 0.2,-0.6 0.3,-1 0.1,-0.3 0.3,-0.5 0.4,-0.8 0,0 0,0 0,0 0.1,-0.2 0.3,-0.3 0.5,-0.4 0.1,-0.1 0.3,-0.2 0.4,-0.3 0.2,-0.1 0.5,-0.3 0.7,-0.5 0.2,-0.2 0.3,-0.4 0.3,-0.7 0.1,-0.5 0.1,-1.2 0,-1.8 0,-0.5 -0.1,-1.2 0.2,-1.6 0.2,-0.3 0.4,-0.6 0.6,-0.8 0.2,-0.3 0.5,-0.6 0.7,-0.8 0.1,-0.1 0.3,-0.3 0.4,-0.4 0.2,-0.2 0.3,-0.4 0.4,-0.6 0.2,-0.4 0.5,-0.7 0.6,-1.1 0.1,-0.1 0.3,-0.4 0.3,-0.6 0.2,-0.7 0.4,-1.5 0.4,-2.3 -0.2,0 -0.5,0.1 -0.6,0.3 -0.2,0.1 -0.6,0.4 -0.8,0.3 C 56.1,32.8 56,32.6 56,32.4 56,32.1 56,31.9 55.8,31.7 55.7,31.6 55.5,31.4 55.4,31.3 55,31 55,30.7 54.9,30.4 54.8,30.1 54.6,29.8 54.4,29.6 54.2,29.4 54.1,29.1 54,28.8 c -0.3,-0.6 -0.5,-1.2 -0.8,-1.7 -0.1,-0.3 -0.3,-0.5 -0.4,-0.8 0,-0.1 -0.1,-0.3 0.1,-0.3 0.1,0 0.3,0.2 0.4,0.3 0.2,0.2 0.3,0.5 0.4,0.8 0.1,0.3 0.3,0.6 0.5,0.8 0.2,0.3 0.3,0.5 0.5,0.8 0.1,0.3 0.3,0.5 0.5,0.8 0.2,0.4 0.4,0.8 0.5,1.2 0.1,0.4 0.2,0.9 0.4,1.3 0.5,0.1 0.9,-0.4 1.3,-0.7 0.3,-0.3 0.5,-0.8 1,-1 0,-0.1 0.2,-0.3 0.3,-0.4 0.1,-0.2 0.2,-0.4 0.4,-0.5 0,-0.2 0.1,-0.3 0.2,-0.4 0,-0.1 0,-0.3 0,-0.5 0,-0.1 0,-0.3 0,-0.5 0,-0.1 -0.1,-0.3 -0.2,-0.4 -0.1,-0.1 -0.2,-0.2 -0.4,-0.3 -0.1,-0.1 -0.2,-0.4 -0.3,-0.4 -0.1,-0.2 -0.2,-0.2 -0.4,-0.1 -0.1,0 -0.4,0.5 -0.4,0.1 -0.1,0 -0.2,-0.3 -0.2,-0.4 -0.1,-0.1 -0.2,-0.2 -0.3,-0.3 -0.2,-0.2 -0.4,-0.5 -0.5,-0.7 0,0 0,0 0,0 0,0 0,0 0,0 0,0 0,0 0,0 -0.1,-0.2 0,-0.3 0.2,-0.2 0.2,0.1 0.2,0.3 0.3,0.4 0.2,0.3 0.5,0.4 0.7,0.6 0.3,0 0.7,0.2 0.8,0.4 0.1,0.1 0.3,0.2 0.5,0.3 0.2,0 0.4,0 0.6,0 0.3,0 0.3,0.1 0.5,0.3 0.2,0.3 0.5,0.7 0.7,1.1 0.1,0.2 0.1,0.3 0.2,0.5 0.1,0.4 0.2,0.8 0.3,1.2 0.1,0.4 0.2,0.8 0.3,1.2 0.1,0.3 0.1,0.9 0.4,1.1 V 32.1 C 62,21.3 56.2,12.1 47.6,6.9"
   clip-path="url(#SVGID_2_)"
   id="path2121" /><path
   mask="none"
   transform="translate(75.74432,-2.0134566)"
   inkscape:connector-curvature="0"
   class="st1"
   d="m 37.5,16 c 0.4,0 0.5,-0.3 0.6,-0.6 0.1,-0.2 0.3,-0.4 0.2,-0.6 -0.1,-0.2 -0.1,-0.3 -0.3,-0.3 h -0.1 c -0.3,-0.2 -0.5,0 -0.7,0.3 -0.2,0.2 -0.3,0.5 -0.2,0.8 0,0.3 0.2,0.4 0.5,0.4"
   clip-path="url(#SVGID_2_)"
   id="path2123"
   style="fill:#080808" /><path
   mask="none"
   transform="translate(75.74432,-2.0134566)"
   inkscape:connector-curvature="0"
   class="st1"
   d="m 38.3,14.6 c 0,0 0.1,0.1 0.1,0.2 0.2,0.2 0.1,0.3 0.4,0.3 l 0.2,0.2 c -0.2,0 -0.5,0.2 -0.5,0.3 0,0 0,0.3 0,0.3 0,0.1 0.2,0.1 0.3,0.1 0,0 -0.1,0 -0.1,0 0,0.1 -0.1,0.2 -0.2,0.3 0,0.1 0,0.1 0,0.2 0,0.1 0,0.1 0,0.2 0.3,0 0.5,-0.1 0.8,-0.1 0.1,0 0.3,0 0.4,-0.1 0.1,0 0.3,0 0.4,-0.1 0.3,-0.1 0.4,-0.3 0.3,-0.6 C 40.3,15.7 40.3,15.5 40.2,15.4 40.1,15.3 40,15.2 39.9,15.1 39.8,15 39.7,14.9 39.6,14.9 39.5,14.8 39.4,14.8 39.3,14.7 39.1,14.5 39,14.2 38.9,14 c -0.1,-0.2 -0.3,-0.4 -0.5,-0.6 -0.1,-0.1 -0.3,-0.1 -0.4,0 0,0.2 0,0.3 0,0.5 0,0.2 0.3,0.4 0.3,0.7"
   clip-path="url(#SVGID_2_)"
   id="path2125"
   style="fill:#080808" /><path
   mask="none"
   transform="translate(75.74432,-2.0134566)"
   inkscape:connector-curvature="0"
   class="st1"
   d="m 34.5,9.8 c -0.2,0 -1.1,-0.1 -1.1,0.3 0,0 0,0 0,0 v 0 c 0,0 0,0 0,0 -0.1,0.1 -0.2,0.2 -0.3,0.1 C 33,10.1 33,10 32.8,9.9 32.7,9.7 32.5,10 32.5,10.1 c 0,0.1 -0.1,0.4 0,0.5 0,0.1 0.2,0.3 0.3,0.4 0.1,0.2 0.3,0.2 0.5,0.2 0.4,0 0.8,0 1.1,-0.1 0.2,0 0.3,-0.1 0.5,-0.3 0.1,-0.1 0.2,-0.2 0.3,-0.3 0.2,-0.4 -0.3,-0.6 -0.7,-0.7"
   clip-path="url(#SVGID_2_)"
   id="path2127"
   style="fill:#080808" /><path
   mask="none"
   transform="translate(75.74432,-2.0134566)"
   inkscape:connector-curvature="0"
   class="st1"
   d="m 32.6,8.8 c 0,0 0,-0.1 0.1,-0.2 0,-0.1 0.1,-0.1 0.1,-0.1 C 32.9,8.4 33,8.3 33,8.2 33.1,8.1 33,7.9 32.9,7.8 32.7,7.7 32.6,7.6 32.7,7.4 c 0.1,0 0.3,0 0.4,0 0.1,0 0.2,0.1 0.3,0.1 0,-0.3 0,-0.3 -0.3,-0.4 C 33,7 32.8,6.9 32.7,6.7 c -0.2,0 -0.4,-0.3 -0.4,-0.5 0,-0.1 0,-0.5 -0.2,-0.6 0,0 0,0 0,-0.1 C 31.9,5.4 31.7,5.2 31.4,5 31.2,4.9 31.2,4.8 31.2,4.6 c 0,-0.1 0,-0.3 0,-0.4 0,-0.2 0,-0.1 -0.2,-0.1 -0.2,0 -0.3,0 -0.4,0.1 -0.2,0.1 -0.3,0.1 -0.5,0.1 -0.2,0 -0.4,-0.1 -0.6,0 -0.2,0 -0.3,0.2 -0.4,0.3 -0.3,0.2 -0.7,0.3 -1,0.3 C 27.9,4.9 27.8,5 27.6,5 27.4,5.1 27.4,5.2 27.3,5.3 27.2,5.6 26.7,5.5 26.4,5.6 26,5.7 26,6 26,6.4 c 0.2,0 0.3,0 0.5,0 0.2,0 0.2,0.1 0.2,0.3 0.1,0.2 0.1,0.3 0.1,0.5 0,0.3 -0.2,0.5 -0.2,0.8 0,0.3 0,0.2 -0.2,0.3 -0.1,0.1 -0.1,0.2 -0.2,0.3 -0.1,0.2 -0.1,0.3 -0.2,0.4 -0.1,0.1 -0.1,0.1 -0.1,0.2 0,0.1 0,0.1 0.1,0.2 0.1,0 0.3,0 0.4,-0.1 0.1,0 0.3,0 0.4,-0.2 C 26.9,9 26.9,8.8 27,8.8 27,9 26.9,9.2 26.8,9.4 c 0,0 0,0 0,0 -0.1,0 0,0 -0.1,0.1 -0.1,0 -0.1,0 -0.1,0.1 -0.2,0 -0.3,0.4 -0.4,0.5 0,0.1 -0.2,0.2 -0.3,0.3 -0.1,0.1 -0.2,0.2 -0.3,0.3 -0.1,0.2 0.1,0.6 0.2,0.8 0.1,0.2 0.3,0.4 0.4,0.6 0.1,0.3 0,0.6 0.2,0.8 0.1,0.1 0.3,0.2 0.4,0.3 0.1,0 0.2,0.1 0.2,0.1 0.1,0.1 0.1,0.2 0.2,0.2 0.2,0.1 0.4,0 0.6,-0.1 0.2,-0.1 0.3,-0.1 0.3,0.1 0,0.1 0,0.3 0.2,0.4 0.2,0.1 0.5,0 0.6,-0.1 0.2,-0.1 0.3,-0.1 0.4,-0.3 0.1,-0.1 0.1,-0.3 0.2,-0.4 0.1,0 0.1,-0.2 0.1,-0.2 -0.4,-0.1 0,-0.8 0.1,-0.9 0,0 0,0 0,-0.1 0.3,-0.1 0.1,-0.7 0.2,-0.9 0.1,-0.1 0.3,-0.1 0.4,-0.3 0.2,-0.2 0.1,-0.3 0.4,-0.3 0.2,0 0.5,0 0.7,-0.1 0,-0.3 0.1,-0.4 0.2,-0.6 0.1,-0.2 0.2,-0.5 0.5,-0.6 0.2,-0.2 0.4,-0.1 0.5,-0.3"
   clip-path="url(#SVGID_2_)"
   id="path2129"
   style="fill:#080808" /><path
   mask="none"
   transform="translate(75.74432,-2.0134566)"
   inkscape:connector-curvature="0"
   class="st1"
   d="m 24,20.6 c 0.1,0.1 0.3,0.1 0.4,0.1 0.2,0 0.3,0 0.5,0 0.2,-0.1 0.2,-0.2 0.2,-0.4 0,-0.2 0,-0.3 -0.1,-0.4 -0.1,-0.1 -0.1,-0.3 -0.2,-0.4 -0.2,-0.2 -0.5,-0.2 -0.7,-0.3 0,0 0,0 0,0 L 24,19.1 c 0,0 0,0 0.1,0 0,-0.2 -0.2,-0.4 -0.4,-0.3 -0.1,0 -0.3,0.3 -0.4,0.4 -0.1,0.1 -0.3,0.3 -0.4,0.4 -0.1,0.2 -0.2,0.2 -0.2,0.5 0.3,0.2 0.8,-0.1 1.2,0 0,0.2 0,0.4 0.1,0.5"
   clip-path="url(#SVGID_2_)"
   id="path2131"
   style="fill:#080808" /><path
   mask="none"
   transform="translate(75.74432,-2.0134566)"
   inkscape:connector-curvature="0"
   class="st1"
   d="m 18.1,12.3 c -0.2,0 -0.4,0 -0.5,0.1 -0.1,0.1 -0.6,0.5 -0.5,0.6 v 0 c 0,0.2 0.3,0 0.4,0 0.2,0 0.4,0 0.5,0.1 0.1,0 0.4,0 0.5,-0.1 0.1,-0.1 -0.1,-0.3 -0.2,-0.4 0,-0.1 -0.1,-0.3 -0.2,-0.3"
   clip-path="url(#SVGID_2_)"
   id="path2133"
   style="fill:#080808" /><path
   mask="none"
   transform="translate(75.74432,-2.0134566)"
   inkscape:connector-curvature="0"
   class="st1"
   d="m 19,9.2 c -0.1,0.1 -0.3,0.2 -0.3,0.3 -0.1,0.1 0,0.4 0,0.5 0.3,0.4 0.9,0.3 1.3,0.2 0.3,-0.1 0.8,-0.1 0.9,0.2 0.1,0.3 -0.3,0.4 -0.5,0.6 -0.1,0.1 -0.3,0.2 -0.2,0.3 0.1,0.1 0.4,0.1 0.5,0.1 0,-0.1 0.1,-0.1 0.1,-0.2 0,-0.1 0.1,-0.1 0.2,-0.2 0.1,0 0.4,-0.1 0.4,0.1 0,0.2 -0.2,0.4 -0.4,0.4 -0.2,0.1 -0.3,0.1 -0.4,0.3 -0.1,0.2 0,0.3 0,0.5 -0.1,0 -0.1,0 -0.2,0 -0.1,-0.2 -1.1,-0.1 -1.1,0.2 0,0 0,0 0,0 0,0 0,0.1 0,0.1 0.2,0.1 0.6,0.1 0.8,0.1 0.1,0 0.2,0 0.3,0.1 0.1,0.1 0.2,0.3 0.3,0.4 0.2,0.2 0.4,0.4 0.6,0.6 0.2,0.2 0.4,0.1 0.7,0.1 0,-0.2 -0.5,-0.7 -0.3,-0.8 0.2,-0.2 0.7,0.4 0.8,0.4 0.5,0.1 0.2,-0.6 0,-0.7 -0.2,-0.2 -0.5,-0.5 -0.3,-0.8 0.2,0 0.3,0 0.5,0 0.2,0.1 0.2,0.2 0.4,0.3 0.1,0.1 0.4,0.1 0.5,0.1 0.1,0 0.4,-0.3 0.4,-0.4 0.1,0 0.2,-0.1 0.2,-0.2 -0.1,-0.1 -0.4,-0.2 -0.6,-0.3 -0.2,-0.1 -0.3,-0.2 -0.4,-0.4 -0.1,-0.1 -0.3,-0.2 -0.2,-0.4 0,-0.1 0.1,-0.2 0.1,-0.3 0,-0.1 0.1,-0.2 0.1,-0.4 C 23.3,9.4 22.7,9.4 22.3,9.2 22.1,9.1 22,9 21.8,8.8 c -0.1,0 -0.1,-0.1 -0.1,-0.1 -0.1,0 -0.2,0 -0.3,0.1 0,0 -0.1,0.1 -0.1,0.1 C 21.2,8.6 21,8.4 20.7,8.4 20.6,8.4 20.4,8.5 20.3,8.5 20.2,8.6 20,8.7 20,8.8 20,9 19.9,9.1 19.8,9.2 c 0,-0.1 0,-0.2 0,-0.3 0,0 0.1,-0.1 0.1,-0.1 0,0 0,-0.1 0,-0.1 0,0 0,0 0,0 0,0 0,-0.1 0,-0.1 C 19.7,8.7 19.5,8.7 19.3,8.9 19.2,9 19.1,9.1 19,9.2"
   clip-path="url(#SVGID_2_)"
   id="path2135"
   style="fill:#080808" /><path
   mask="none"
   transform="translate(75.74432,-2.0134566)"
   inkscape:connector-curvature="0"
   class="st1"
   d="m 14.3,9.6 c 0.2,0 0.2,0 0.2,0.2 0,0.1 0.1,0.2 0.1,0.3 0,0 0,0 0,0 h -0.1 c 0,0 0,0 0,0 -0.1,0 -0.4,0.1 -0.4,0.2 -0.1,0.1 -0.1,0.3 -0.1,0.4 -0.1,0.3 0.2,0.2 0.4,0.2 0.2,0 0.4,0 0.5,-0.1 0.2,-0.1 0.3,-0.1 0.6,-0.1 0.2,0 0.3,0.1 0.4,0 C 16,10.6 16,10.4 16.1,10.2 16.2,10 16.3,9.9 16.3,9.7 16.4,9.6 16.4,9.4 16.6,9.3 16.7,9.1 16.9,9.2 16.8,8.9 16.7,8.7 16.5,8.8 16.3,8.7 16.3,8.5 16.3,8.4 16.1,8.2 16,8.1 15.8,8.1 15.6,8 15.4,8 15.3,8 15.1,8.1 15,8.2 14.6,8.3 14.6,8.4 c -0.2,0 -0.3,0.2 -0.4,0.3 0,0.1 -0.2,0.4 -0.2,0.5 -0.1,0.3 0.1,0.4 0.3,0.4"
   clip-path="url(#SVGID_2_)"
   id="path2137"
   style="fill:#080808" /><path
   mask="none"
   transform="translate(75.74432,-2.0134566)"
   inkscape:connector-curvature="0"
   class="st1"
   d="m 17.4,9.3 v 0 c 0.3,0 0.4,-0.1 0.6,-0.1 0.2,0 0.3,0 0.5,0 0,-0.2 0.6,-0.5 0.8,-0.5 0,-0.1 0,-0.2 0,-0.2 -0.1,0 -0.2,0 -0.2,0 0,0.2 -0.2,0.2 -0.3,0 -0.3,0 -1.1,-0.1 -1,0.4 -0.3,0 -0.7,0.1 -0.4,0.4"
   clip-path="url(#SVGID_2_)"
   id="path2139"
   style="fill:#080808" /><path
   mask="none"
   transform="translate(75.74432,-2.0134566)"
   inkscape:connector-curvature="0"
   class="st1"
   d="m 16.5,10.4 c -0.1,0.1 -0.1,0.2 -0.1,0.3 0.1,0 0.2,0 0.3,0 0,-0.1 0.1,-0.1 0.1,-0.2 v -0.1 c -0.1,0 -0.2,0 -0.3,0"
   clip-path="url(#SVGID_2_)"
   id="path2141"
   style="fill:#080808" /><path
   mask="none"
   transform="translate(75.74432,-2.0134566)"
   inkscape:connector-curvature="0"
   class="st1"
   d="m 17.5,8.2 c 0.1,-0.3 0.4,-0.3 0.7,-0.4 0.2,-0.1 0.4,-0.3 0.4,-0.4 v 0.1 c 0.1,0 0.1,0 0.2,0 0,-0.3 0.1,-0.3 0.3,-0.3 0.1,0 0.4,-0.1 0.4,-0.3 -0.2,-0.1 -0.5,-0.1 -0.8,0 0,0.3 -0.2,0.5 -0.5,0.5 0.1,-0.1 0.3,-0.1 0.2,-0.3 -0.5,0 -0.9,0.2 -1.3,0.5 -0.1,0.1 -0.3,0.4 -0.3,0.6 0.1,0.1 0.5,0 0.7,0"
   clip-path="url(#SVGID_2_)"
   id="path2143"
   style="fill:#080808" /><path
   mask="none"
   transform="translate(75.74432,-2.0134566)"
   inkscape:connector-curvature="0"
   class="st1"
   d="m 55.6,42.1 c -0.2,0.4 -0.7,0.5 -0.9,0.9 -0.4,0.1 -0.5,0.1 -0.5,0.4 -0.1,0.3 -0.1,0.6 -0.2,0.9 0,0.2 -0.2,0.5 -0.3,0.6 -0.1,0.2 -0.3,0.2 -0.4,0.5 -0.1,0.4 -0.2,0.7 -0.1,1.1 0.6,0.1 0.9,-0.1 1.1,-0.6 0.1,-0.1 0.3,-0.4 0.3,-0.6 0.2,-0.4 0.5,-0.8 0.7,-1.3 0.1,-0.2 0.2,-0.4 0.3,-0.7 0.1,-0.2 0.3,-0.4 0.3,-0.7 0.1,-0.2 0.1,-0.6 0,-0.8 -0.1,-0.5 -0.2,0.1 -0.3,0.3"
   clip-path="url(#SVGID_2_)"
   id="path2145"
   style="fill:#080808" /><path
   mask="none"
   transform="translate(75.74432,-2.0134566)"
   inkscape:connector-curvature="0"
   class="st1"
   d="m 49.8,23 v -0.3 c -0.2,0 -0.6,-0.1 -0.6,0.1 -0.1,0.3 0.4,0.2 0.6,0.2"
   clip-path="url(#SVGID_2_)"
   id="path2147"
   style="fill:#080808" /><path
   mask="none"
   transform="translate(75.74432,-2.0134566)"
   inkscape:connector-curvature="0"
   class="st1"
   d="m 52,22.8 c 0,0 -0.1,-0.1 -0.2,-0.1 -0.1,-0.1 -0.5,-0.1 -0.4,0.3 0.1,0.2 0.5,0.1 0.6,0.1 0.1,-0.2 0.1,-0.3 0,-0.3 0,0 0.1,0 0,0"
   clip-path="url(#SVGID_2_)"
   id="path2149"
   style="fill:#080808" /><path
   mask="none"
   transform="translate(75.74432,-2.0134566)"
   inkscape:connector-curvature="0"
   class="st1"
   d="m 43.9,21.3 c 0.1,0.1 0.3,0.1 0.5,0.1 0,-0.3 0,-0.7 -0.1,-1 -0.1,-0.2 -0.1,-0.6 -0.5,-0.6 0,0.1 -0.1,0.2 -0.1,0.2 v 0.2 c 0,0.2 0,0.2 0.1,0.3 0.1,0.2 0.3,0.2 0.2,0.4 -0.1,0.2 -0.2,0.3 -0.1,0.4"
   clip-path="url(#SVGID_2_)"
   id="path2151"
   style="fill:#080808" /><path
   mask="none"
   transform="translate(75.74432,-2.0134566)"
   inkscape:connector-curvature="0"
   class="st2"
   d="m 14.5,31.6 c 0.2,0.2 0.3,0.5 0.7,0.4 0.2,0 0.8,0 0.9,-0.2 0,-0.1 -0.1,-0.2 -0.2,-0.2 -0.1,-0.1 -0.2,-0.2 -0.3,-0.2 0,-0.1 -0.2,-0.2 -0.3,-0.3 -0.1,-0.1 -0.1,-0.2 -0.2,-0.3 -0.1,-0.1 -0.3,-0.1 -0.4,-0.1 -0.2,-0.1 -0.3,-0.1 -0.5,-0.1 -0.3,0 -0.6,0 -0.8,0.1 -0.2,0.1 -0.4,0.2 -0.6,0.3 0,0 0,0.1 0,0.2 0.1,0.1 0.2,0.1 0.3,0.1 0.2,0 0.2,0 0.3,-0.1 0.1,-0.1 0.2,-0.1 0.3,-0.1 0.1,0 0.2,0 0.3,0 0,0 0.1,0.1 0.1,0.1 v 0 c 0,0.1 0.2,0.2 0.4,0.4"
   clip-path="url(#SVGID_2_)"
   id="path2153"
   style="fill:#231f20" /><path
   mask="none"
   transform="translate(75.74432,-2.0134566)"
   inkscape:connector-curvature="0"
   class="st2"
   d="m 16.2,32.7 c 0.2,0.1 0.4,0.1 0.6,0.1 0.1,0 0.3,0.1 0.4,0.1 0.3,0 0.6,0 0.9,-0.1 0.2,0 0.2,-0.1 0.1,-0.3 -0.1,-0.2 -0.3,-0.3 -0.5,-0.4 -0.3,-0.2 -0.7,-0.3 -1.1,-0.3 0,0 -0.1,0.1 -0.1,0.1 v 0 c -0.1,0 -0.1,0.1 -0.1,0.2 0,0.1 0.1,0.1 0.2,0.2 -0.1,0.2 -0.4,0 -0.6,0.1 -0.1,0.1 0.1,0.3 0.2,0.3"
   clip-path="url(#SVGID_2_)"
   id="path2155"
   style="fill:#231f20" /><path
   mask="none"
   transform="translate(75.74432,-2.0134566)"
   inkscape:connector-curvature="0"
   class="st2"
   d="m 18.6,33 c 0.1,0.2 0.5,0.2 0.6,0.2 0,-0.1 0.2,-0.4 0,-0.5 -0.1,-0.1 -0.4,-0.1 -0.5,0 h 0.1 c -0.2,-0.1 -0.2,0.1 -0.2,0.3"
   clip-path="url(#SVGID_2_)"
   id="path2157"
   style="fill:#231f20" /><path
   mask="none"
   transform="translate(75.74432,-2.0134566)"
   inkscape:connector-curvature="0"
   class="st1"
   d="m 20,8.2 c 0.5,0.1 1.2,0.1 1.6,-0.1 0.1,0 0.5,-0.1 0.6,-0.3 0.1,-0.3 -0.3,-0.3 -0.4,-0.2 -0.1,0 -0.1,0 -0.2,0 v 0.1 0 c -0.1,0 -0.3,0 -0.5,0 -0.2,0 -0.2,-0.2 -0.3,-0.3 -0.1,-0.1 -0.1,-0.2 -0.2,-0.2 -0.1,0 -0.3,0 -0.5,0 0,0.1 0.2,0.1 0.2,0.2 0.1,0.1 0,0.2 0,0.3 C 20.1,7.9 19.9,8 20,8.2"
   clip-path="url(#SVGID_2_)"
   id="path2159"
   style="fill:#080808" /><path
   mask="none"
   transform="translate(75.74432,-2.0134566)"
   inkscape:connector-curvature="0"
   class="st1"
   d="m 20.4,6.8 c 0,0.1 0.2,0.1 0.1,0.1 v 0 C 20.6,6.8 21,6.9 21,6.7 21,6.6 20.9,6.5 20.9,6.4 c 0,-0.1 0.1,-0.1 0,-0.2 -0.2,-0.1 -0.7,-0.1 -0.8,0.2 0,0.3 0.1,0.2 0.3,0.4"
   clip-path="url(#SVGID_2_)"
   id="path2161"
   style="fill:#080808" /><path
   mask="none"
   transform="translate(75.74432,-2.0134566)"
   inkscape:connector-curvature="0"
   class="st1"
   d="m 22.4,7.4 c 0.1,0 0.2,0 0.3,0 0.1,0 0.1,0 0.2,0.1 0.2,0.1 0.5,0 0.6,-0.2 0.1,-0.1 0.1,0 0.1,-0.1 0,-0.1 0,-0.2 0,-0.2 0,-0.1 0,-0.3 0.1,-0.4 0.1,-0.1 0.4,-0.1 0.5,-0.1 0.1,0 0.3,0 0.4,-0.1 C 24.7,6.3 24.7,6.2 24.8,6.2 25,6 25.2,5.9 25.5,5.9 25.7,5.9 25.9,5.9 26,5.8 26.3,5.6 26.6,5.5 26.8,5.3 26.9,5.2 26.9,5.2 26.9,5.1 26.9,5.1 27,5 27,5 27,5 27,5 27,5 26.8,4.9 26.4,4.9 26.2,4.9 26,4.9 25.8,5 25.6,5 c -0.1,0 -0.3,0 -0.3,0.1 -0.1,0.1 0,0.1 -0.1,0.2 0,0.1 -0.1,0.1 -0.1,0.2 C 25.1,5.6 25,5.7 25,5.8 24.9,5.9 24.8,5.9 24.8,6 24.7,6.1 24.5,6.2 24.4,6.3 24.1,6 23.9,6 23.8,6 23.5,6.1 23.2,6.2 22.9,6.2 h -0.1 c -0.1,0 0,0 -0.1,0.1 -0.1,0.1 -0.1,0.3 -0.1,0.5 0,0.1 0,0.2 -0.2,0.2 -0.1,0 -0.3,0 -0.3,-0.1 -0.1,0.1 -0.1,0 -0.2,0 -0.1,0 -0.4,0.2 -0.4,0.3 0.1,0.3 0.7,0.2 0.9,0.2"
   clip-path="url(#SVGID_2_)"
   id="path2163"
   style="fill:#080808" /><circle
   clip-path="none"
   mask="none"
   r="30.510954"
   cy="30.058878"
   cx="107.86375"
   id="circle2165"
   style="fill:none;fill-opacity:1;stroke:#000000;stroke-width:1.75706458;stroke-miterlimit:4;stroke-dasharray:none;stroke-opacity:1" /></g></svg>